<svg xmlns="http://www.w3.org/2000/svg" viewBox="0 0 100 100">
    <rect width="100" height="100" fill="#000000"/>
    <g>
        <!-- Greek Doric Column 1 (short) -->
        <g fill="white">
            <rect x="10" y="55" width="24" height="4" ry="1"/>
            <path d="M 12 59 L 10 64 L 34 64 L 32 59 Z"/>
            <rect x="13" y="64" width="18" height="21"/>
            <rect x="11" y="85" width="22" height="5" ry="1"/>
        </g>
        <!-- Greek Doric Column 2 (medium) -->
        <g fill="white">
            <rect x="38" y="35" width="24" height="4" ry="1"/>
            <path d="M 40 39 L 38 44 L 62 44 L 60 39 Z"/>
            <rect x="41" y="44" width="18" height="41"/>
            <rect x="39" y="85" width="22" height="5" ry="1"/>
        </g>
        <!-- Greek Doric Column 3 (tall) -->
        <g fill="white">
            <rect x="66" y="15" width="24" height="4" ry="1"/>
            <path d="M 68 19 L 66 24 L 90 24 L 88 19 Z"/>
            <rect x="69" y="24" width="18" height="61"/>
            <rect x="67" y="85" width="22" height="5" ry="1"/>
        </g>
    </g>
</svg>