<svg xmlns="http://www.w3.org/2000/svg" width="512" height="512" viewBox="0 0 24 24">
    <rect width="24" height="24" fill="#1e1e1e"/>
    <g transform="scale(0.85) translate(1.8 1.8)" stroke="#e5e5e5" stroke-width="1.5" stroke-linecap="round" stroke-linejoin="round" fill="none">
        <!-- Laurel -->
        <path d="M7.5 10 C 7 5, 17 5, 16.5 10" />
        <path d="M9.5 7.5 L8.5 9" />
        <path d="M11.5 6 L10.5 7.5" />
        <path d="M13.5 6 L12.5 7.5" />
        <path d="M15.5 7.5 L14.5 9" />

        <!-- Head -->
        <path d="M15.5 10.5 C 15.5 12, 15 13.5, 14.2 14.5" /> <!-- Back of head -->
        <path d="M14.2 14.5 C 13.5 16, 12.5 17, 11 17 C 9.5 17, 9 16, 9 15" /> <!-- Neck and Chin -->
        <path d="M9 15 L 9.5 13.5" /> <!-- Jaw Line -->
        <path d="M9.5 13.5 L 10.5 12.5 L 9.7 11.5" /> <!-- Nose -->
        
        <!-- Base/Shoulder -->
        <path d="M8 20 C 8 18, 16 18, 16 20" />
        <path d="M11 17 v1.5" />
    </g>
</svg>