<svg xmlns="http://www.w3.org/2000/svg" width="512" height="512" viewBox="0 0 100 100">
  <rect width="100" height="100" fill="#000000"/>
  <g transform="translate(12.5, 12.5) scale(0.75, 0.75)">
    <path fill="#FFFFFF" d="M68.5,88.7c-2.3-0.8-4.2-2.2-5.7-4.1c-1.4-1.9-2.2-4.2-2.2-6.6c0-1.7,0.3-3.4,0.9-5c0.6-1.6,1.5-3,2.7-4.3
	c-2-0.2-4-0.3-6.1-0.3c-2.5,0-4.9,0.2-7.2,0.5c2.4,2.1,3.8,5.1,3.8,8.3c0,0.9-0.1,1.8-0.4,2.7c-0.2,0.9-0.6,1.7-1,2.5
	c1.8,0.7,3.5,1.7,4.9,2.9c1.5,1.2,2.7,2.8,3.6,4.5c0.2,0.5,0.4,1,0.5,1.5c-4.1,1.8-8.5,2.7-13.2,2.7c-4.7,0-9.1-0.9-13.2-2.7
	c0.1-0.5,0.3-1,0.5-1.5c0.9-1.7,2.1-3.2,3.6-4.5c1.4-1.2,3.1-2.2,4.9-2.9c-0.4-0.8-0.8-1.6-1-2.5c-0.3-0.9-0.4-1.8-0.4-2.7
	c0-3.2,1.4-6.2,3.8-8.3c-2.3-0.3-4.7-0.5-7.2-0.5c-2.1,0-4.1,0.1-6.1,0.3c1.2,1.3,2.1,2.7,2.7,4.3c0.6,1.6,0.9,3.3,0.9,5
	c0,2.4-0.8,4.7-2.2,6.6c-1.5,1.9-3.4,3.3-5.7,4.1C11.5,86.4,7.8,83,5.6,78.5c-2.3-4.5-3.1-9.6-2.2-14.6c0.9-5,3.4-9.5,7.1-12.8
	c3.8-3.3,8.6-5.1,13.7-5.1c2.1,0,4.2,0.3,6.2,0.8c-1.1,2.1-1.7,4.4-1.7,6.8c0,3.3,1,6.5,2.8,9.1c0.7,1,1.6,1.9,2.5,2.7
	c-1.5,0.3-3,0.5-4.5,0.5c-3,0-5.9-0.6-8.6-1.8c-2.7-1.2-5-2.9-6.8-5.1c-0.5-0.6-1-1.2-1.4-1.9c-2.1,2-3.3,4.7-3.3,7.6
	c0,2.8,1,5.5,2.8,7.6c1.8,2.1,4.2,3.6,6.9,4.4c2.7,0.8,5.6,0.8,8.3,0c2.7-0.8,5.1-2.3,6.9-4.4c1.8-2.1,2.8-4.8,2.8-7.6
	c0-2.9-1.2-5.6-3.3-7.6c-0.4,0.7-0.9,1.3-1.4,1.9c-1.8,2.2-4.1,3.9-6.8,5.1c-2.7,1.2-5.6,1.8-8.6,1.8c-1.5,0-3-0.2-4.5-0.5
	c1-0.8,1.8-1.7,2.5-2.7c1.8-2.6,2.8-5.8,2.8-9.1c0-2.4-0.6-4.7-1.7-6.8c2-0.5,4.1-0.8,6.2-0.8c5.1,0,9.9,1.8,13.7,5.1
	c3.7,3.3,6.2,7.8,7.1,12.8c0.9,5-0.1,10.1-2.4,14.6C92.2,83,88.5,86.4,84.1,88.7z M49.8,42.4c-4.9,0-9.6,1.2-13.7,3.4
	c-4.1,2.2-7.4,5.4-9.7,9.3c-2.3,3.9-3.4,8.3-3.1,12.8c0.3,4.5,1.9,8.7,4.6,12.2c2.7,3.5,6.4,6.1,10.7,7.4c4.3,1.3,8.8,1.1,12.9-0.4
	c4.1-1.5,7.6-4.1,10-7.6c2.4-3.5,3.7-7.8,3.5-12.1c-0.2-4.5-1.8-8.8-4.5-12.4c-2.7-3.6-6.4-6.3-10.7-7.6
	C53.7,42.7,51.8,42.4,49.8,42.4z"/>
    <path fill="#27AE60" d="M85.4,42.4c-0.3-1.4-0.5-2.9-0.5-4.3c0-3.2,0.8-6.3,2.2-9.1c0.1-0.2,0.2-0.4,0.3-0.6c-3.1-1.3-6.4-2-9.8-2
	c-4.9,0-9.6,0.9-13.9,2.6c-1.4,0.6-2.7,1.2-4,2c-2.1-2.9-3.6-6.2-4.3-9.7c-0.2-1.2-0.4-2.4-0.4-3.6c-2.6,0.5-5.1,1.2-7.5,2.1
	c0.4,2.5,1.2,5,2.3,7.3c1.7,3.3,4.1,6,7.1,7.8c3,1.8,6.5,2.6,10,2.1c0.6,1.6,1.3,3.2,2.2,4.6c-4.5,2.2-8.5,5.2-11.8,8.8
	c-2.1-2-4.7-3.5-7.5-4.4c-3.9-1.2-8-1-11.9,0.5c-2.8,1.1-5.3,2.7-7.5,4.8c-0.8,0.8-1.5,1.6-2.2,2.5c0.8-3.1,1.1-6.2,0.8-9.4
	c-0.4-5.1-2.2-10-5.2-14.2c-0.2-0.3-0.4-0.5-0.6-0.8c-2.8,3.1-4.8,6.8-5.8,10.8c-1,4-1.1,8.1-0.2,12.1c0.3,1.2,0.6,2.4,1,3.6
	c2.9-2.2,6.3-3.8,9.8-4.6c4.6-1.1,9.4-0.6,13.8,1.3c3.2,1.4,6.1,3.4,8.5,5.9c0.9,1,1.8,2,2.6,3.1c1.3-0.4,2.6-0.7,3.9-0.9
	c1.8-0.2,3.7-0.4,5.5-0.4c2.1,0,4.2,0.2,6.2,0.5c-0.5-1.8-1.2-3.5-2.2-5.1c-1.9-3.2-4.6-5.8-7.8-7.5c-3.2-1.7-6.8-2.4-10.4-2.1
	c-0.2-1.4-0.2-2.8,0-4.2c0.8-4.6,3-8.8,6.2-12.2c2.5,2.3,4.3,5.2,5.2,8.4c0.6,2.1,0.8,4.2,0.6,6.3c-0.1,0.8-0.2,1.6-0.4,2.4
	c3.1-0.8,6.1-0.9,9.1-0.4c3.9,0.7,7.6,2.5,10.6,5.1C85.8,44.2,85.7,43.3,85.4,42.4z"/>
    <path fill="#000000" d="M26.4,10.7c0-1.2-0.2-2.5-0.6-3.6c-0.5-1.4-1.2-2.7-2.1-3.9C24,3.1,24.2,3,24.5,3c1.4,0,2.8,0.2,4.1,0.5
	c-0.3,0.9-0.5,1.8-0.6,2.7c-0.1,1.2,0,2.5,0.3,3.6C27.5,10.3,26.8,10.5,26.4,10.7z"/>
    <path fill="#000000" d="M14,23.3c-1.1,0.4-2.2,0.7-3.4,0.7c-1.2,0-2.4-0.1-3.5-0.4c0.5-0.8,1-1.7,1.4-2.6c0.5-1.2,0.9-2.5,1.1-3.8
	C10.2,18.4,11.3,19,12.1,19.1z"/>
    <path fill="#000000" d="M71.4,3.4c0.2,0,0.5,0.1,0.7,0.1c-0.9,1.1-1.6,2.4-2.1,3.7c-0.4,1.1-0.6,2.3-0.6,3.5c0,0.4,0,0.8,0.1,1.2
	c-0.3-0.1-0.6-0.2-0.9-0.4c1-1.9,1.6-4,1.8-6.1C70.7,4.6,71,4.1,71.4,3.4z"/>
    <path fill="#000000" d="M82.8,22.1c-1.2-0.5-2.5-0.8-3.8-0.8c-1.2,0-2.4,0.2-3.5,0.5c0.6,1.1,1,2.3,1.3,3.5c0.2,1.2,0.2,2.4-0.1,3.6
	c1.2-0.6,2.2-1.5,2.9-2.6C80.3,25.1,81.4,23.8,82.8,22.1z"/>
    <path fill="#000000" d="M49.8,15.1c-1,0-2,0.1-3,0.3c-1.1,0.2-2.1,0.5-3.1,0.9c0.8,0.9,1.4,2,1.8,3.1c0.4,1.1,0.6,2.3,0.5,3.5
	c0.9-0.1,1.8-0.2,2.8-0.2c1,0,2,0.1,2.9,0.2c-0.1-1.2,0.1-2.4,0.5-3.5c0.4-1.1,1-2.1,1.8-3.1c-1-0.4-2-0.7-3.1-0.9
	C51.8,15.2,50.8,15.1,49.8,15.1z"/>
  </g>
</svg>