<svg xmlns="http://www.w3.org/2000/svg" width="512" height="512" viewBox="0 0 100 100">
  <rect width="100" height="100" fill="#000000"/>
  <g transform="translate(0, 10) scale(0.75)">
    <!-- Branches -->
    <path d="M50 90 C 20 70, 20 30, 45 10" stroke="#27ae60" stroke-width="4" fill="none" stroke-linecap="round"/>
    <path d="M50 90 C 80 70, 80 30, 55 10" stroke="#27ae60" stroke-width="4" fill="none" stroke-linecap="round"/>

    <!-- Leaves Left -->
    <g fill="#27ae60" transform="translate(35 60) rotate(-60)"> <ellipse rx="9" ry="4.5"/> </g>
    <g fill="#27ae60" transform="translate(28 45) rotate(-45)"> <ellipse rx="9" ry="4.5"/> </g>
    <g fill="#27ae60" transform="translate(30 30) rotate(-30)"> <ellipse rx="9" ry="4.5"/> </g>
    <g fill="#27ae60" transform="translate(38 18) rotate(-15)"> <ellipse rx="9" ry="4.5"/> </g>

    <!-- Leaves Right -->
    <g fill="#27ae60" transform="translate(65 60) rotate(60)"> <ellipse rx="9" ry="4.5"/> </g>
    <g fill="#27ae60" transform="translate(72 45) rotate(45)"> <ellipse rx="9" ry="4.5"/> </g>
    <g fill="#27ae60" transform="translate(70 30) rotate(30)"> <ellipse rx="9" ry="4.5"/> </g>
    <g fill="#27ae60" transform="translate(62 18) rotate(15)"> <ellipse rx="9" ry="4.5"/> </g>
  </g>
</svg>
