<svg xmlns="http://www.w3.org/2000/svg" viewBox="0 0 100 100">
  <rect width="100" height="100" fill="#000000"/>
  <g transform="translate(10 10) scale(0.8)">
    <!-- Roman Column -->
    <g fill="white">
      <path d="M32.5,95 h35 v-5 h-35 z M37.5,90 h25 v-70 h-25 z M32.5,20 h35 v-5 h-35 z"/>
      <path d="M42.5,88 V22 M50,88 V22 M57.5,88 V22" stroke="#d0d0d0" stroke-width="1.5" fill="none"/>
    </g>
    <!-- Laurel Wreath -->
    <g transform="translate(0, -5)">
      <g stroke="#27ae60" stroke-width="3.5" stroke-linecap="round" fill="none">
        <path d="M50,75 C 25,65 30,30 46,15"/>
        <path d="M50,75 C 75,65 70,30 54,15"/>
      </g>
      <g fill="#27ae60">
        <!-- Left side -->
        <g transform="translate(38 55) rotate(-55)"> <ellipse rx="7" ry="3.5"/> </g>
        <g transform="translate(33 40) rotate(-45)"> <ellipse rx="7" ry="3.5"/> </g>
        <g transform="translate(36 25) rotate(-30)"> <ellipse rx="7" ry="3.5"/> </g>
        <g transform="translate(43 16) rotate(-15)"> <ellipse rx="7" ry="3.5"/> </g>
        <!-- Right side -->
        <g transform="translate(62 55) rotate(55)"> <ellipse rx="7" ry="3.5"/> </g>
        <g transform="translate(67 40) rotate(45)"> <ellipse rx="7" ry="3.5"/> </g>
        <g transform="translate(64 25) rotate(30)"> <ellipse rx="7" ry="3.5"/> </g>
        <g transform="translate(57 16) rotate(15)"> <ellipse rx="7" ry="3.5"/> </g>
      </g>
    </g>
  </g>
</svg>
