<svg xmlns="http://www.w3.org/2000/svg" width="512" height="512" viewBox="0 0 100 100">
  <rect width="100" height="100" fill="#121212"/>
  <g transform="translate(15, 12) scale(0.7)">
    <!-- Head -->
    <path fill="#e5e5e5" d="M49.8,24.3c-1,0-1.9,0.2-2.8,0.5c-1.7,0.6-2.9,2.1-3.3,3.9c-0.4,1.8,0.2,3.7,1.4,5.1c1.2,1.5,3,2.4,4.9,2.4h1.3c-0.8,1.1-1.2,2.4-1.2,3.7c0,0.1,0,0.2,0,0.2c-2,0-4,0.8-5.4,2.2c-1.4,1.4-2.2,3.4-2.2,5.4c0,0.7,0.1,1.4,0.4,2.1c0.7,2.1,2.4,3.8,4.7,4.5c2.2,0.7,4.6,0.5,6.6-0.6c2-1.1,3.6-3,4.1-5.1c0.1-0.3,0.1-0.6,0.1-0.9c0-0.9-0.3-1.7-0.8-2.5c-0.5-0.7-1.2-1.3-1.9-1.8c0.8-1.3,1.2-2.8,1.2-4.3c0-0.7-0.1-1.4-0.4-2.1c-0.4-1-0.9-1.9-1.5-2.7c1.4,0.2,2.9,0.3,4.3,0.3c1,0,1.9-0.1,2.8-0.2c-0.7,0.8-1.2,1.7-1.5,2.7c-0.2,0.7-0.4,1.4-0.4,2.1c0,1.5,0.4,3,1.2,4.3c-0.8,0.5-1.4,1.1-1.9,1.8c-0.5-0.7-0.8-1.6-0.8-2.5c0-0.3,0.1-0.6,0.1-0.9c0.5-2.1,2.1-4,4.1-5.1c2-1.1,4.4-1.3,6.6-0.6c2.2,0.7,4,2.4,4.7,4.5c0.2,0.7,0.4,1.4,0.4,2.1c0-2-0.8-3.9-2.2-5.4c-1.4-1.4-3.4-2.2-5.4-2.2c0-0.1,0-0.1,0-0.2c0-1.3-0.4-2.6-1.2-3.7h1.3c1.9,0,3.7-0.9,4.9-2.4c1.2-1.4,1.7-3.3,1.4-5.1c-0.4-1.8-1.6-3.3-3.3-3.9C51.7,24.5,50.7,24.3,49.8,24.3z"/>
    <!-- Laurel -->
    <path fill="#27ae60" d="M82.1,51.1c-2.4-2.6-2.2-6.6,0.4-9.1c1.3-1.2,2.8-2,4.4-2.5c-0.3-2-0.8-3.9-1.5-5.8c-2.3,0.8-4.8,0.7-7-0.4c-3.1-1.6-5.1-4.6-5.8-8c-0.5-2.6-0.3-5.3,0.4-7.8c-2-0.9-4-1.5-6.2-1.8c0.5,2.4,0.3,5-0.7,7.3c-1.5,3.3-4.3,5.6-7.7,6.4c-2.7,0.6-5.4,0.2-7.9-1.1c-1-1.7-1.8-3.5-2.3-5.4c-1.9,0.1-3.7,0.4-5.5,0.9c1.1,2.5,1.3,5.3,0.5,7.9c-1.2,3.8-4.2,6.6-7.9,7.6c-2.5,0.7-5.1,0.5-7.5-0.4c-0.8,2-1.4,4-1.7,6.1c2.3,0,4.5-0.8,6.2-2.3c2.9-2.5,6.9-2.7,9.8-0.5c1.7,1.3,3.8,2,5.9,2c2.1,0,4.2-0.7,5.9-2C75.2,53.8,79.2,53.6,82.1,51.1z"/>
    <!-- Details and Berries -->
    <path fill="#121212" d="M49.8,20c-1.9,0-3.8,0.4-5.5,1.1c-1.7,0.7-3.1,1.8-4.1,3.2c-1,1.4-1.5,3-1.5,4.7c0,3,1.2,5.7,3.1,7.7c2,2,4.7,3.1,7.5,3.1s5.5-1.1,7.5-3.1c2-2,3.1-4.7,3.1-7.7c0-1.7-0.5-3.3-1.5-4.7c-1-1.4-2.4-2.5-4.1-3.2C53.6,20.4,51.7,20,49.8,20z M49.8,76.5c-0.9,0-1.8-0.2-2.6-0.6c-1.7-0.8-2.9-2.3-3.4-4.1c-0.1-0.4-0.1-0.8-0.1-1.2c0-0.9,0.3-1.8,0.8-2.5s1.2-1.3,2-1.8c-0.8-1.3-1.2-2.8-1.2-4.4c0-0.7,0.1-1.4,0.4-2.1c0.3-0.9,0.9-1.8,1.6-2.5c-1.4-0.2-2.8-0.3-4.2-0.3c-2.1,0-4.2,0.2-6.2,0.7c0.7,1,1.2,2.1,1.5,3.3c0.2,0.7,0.3,1.4,0.3,2.1c0,1.6-0.4,3.1-1.2,4.4c0.8,0.5,1.5,1.1,2,1.8c0.5,0.7,0.8,1.6,0.8,2.5c0,0.4,0,0.8-0.1,1.2c-0.5,1.8-1.7,3.3-3.4,4.1c-1.7,0.8-3.6,0.9-5.4,0.3c-1.8-0.6-3.3-1.8-4.3-3.4c-0.2-0.3-0.3-0.6-0.4-1c-0.1-0.7-0.2-1.4-0.2-2.1c0-2.1,0.8-4.1,2.2-5.6s3.5-2.2,5.6-2.2c0.1,0,0.2,0,0.3,0c1.3-1.8,3.2-3.1,5.4-3.8c2.2-0.7,4.6-0.7,6.8,0c2.2,0.7,4.1,2,5.4,3.8c0.1,0,0.2,0,0.3,0c2.1,0,4.1,0.8,5.6,2.2c1.4,1.4,2.2,3.5,2.2,5.6c0,0.7-0.1,1.4-0.2,2.1c-0.1,0.3-0.2,0.7-0.4,1c-1,1.6-2.5,2.8-4.3,3.4c-1.8,0.6-3.7,0.5-5.4-0.3c-1.7-0.8-2.9-2.3-3.4-4.1c-0.1-0.4,0-0.8-0.1-1.2c0-0.9,0.3-1.8,0.8-2.5c0.5-0.7,1.2-1.3,2-1.8c-0.8-1.3-1.2-2.8-1.2-4.4c0-0.7,0.1-1.4,0.4-2.1c0.3-0.9,0.9-1.8,1.6-2.5c-1.4-0.2-2.8-0.3-4.2-0.3s-2.8,0.1-4.2,0.3c0.7,0.8,1.3,1.6,1.6,2.5c0.3,0.7,0.4,1.4,0.4,2.1c0,1.6-0.4,3.1-1.2,4.4c0.8,0.5,1.5,1.1,2,1.8c0.5,0.7,0.8,1.6,0.8,2.5c0,0.4,0,0.8-0.1,1.2c-0.5,1.8-1.7,3.3-3.4,4.1C51.6,76.3,50.7,76.5,49.8,76.5z"/>
  </g>
</svg>
