<svg xmlns="http://www.w3.org/2000/svg" viewBox="0 0 64 64">
  <defs>
    <linearGradient id="coinGrad" x1="0%" y1="0%" x2="100%" y2="100%">
      <stop offset="0%" style="stop-color:#8E2DE2;stop-opacity:1" />
      <stop offset="100%" style="stop-color:#4A00E0;stop-opacity:1" />
    </linearGradient>
  </defs>
  
  <!-- Hand -->
  <path d="M10 40 C 10 32, 20 32, 24 32 L 40 32 C 54 32, 54 40, 54 40 L 54 50 C 54 60, 40 60, 40 60 L 24 60 C 10 60, 10 50, 10 50 Z" fill="none" stroke="#e5e5e5" stroke-width="3" stroke-linecap="round" stroke-linejoin="round"/>
  <path d="M10 50 L 10 64" fill="none" stroke="#e5e5e5" stroke-width="3" stroke-linecap="round"/>
  <path d="M18 60 L 14 64" fill="none" stroke="#e5e5e5" stroke-width="3" stroke-linecap="round"/>

  <!-- Coin -->
  <circle cx="32" cy="20" r="14" fill="url(#coinGrad)" />
  <circle cx="32" cy="20" r="11" fill="none" stroke="white" stroke-width="1.5" opacity="0.3" />
  
  <!-- Dollar Sign -->
  <path d="M32 12 v16 M29 14 h4 c 2 0 3 1.5 3 3 s -1.5 3 -3 3 h -2 c -1.5 0 -3 1.5 -3 3 s 1.5 3 3 3 h 4" stroke="white" stroke-width="2.5" stroke-linecap="round" stroke-linejoin="round" fill="none"/>
  
  <!-- Sparkles -->
  <path d="M52 12 L 54 8 L 56 12 L 60 14 L 56 16 L 54 20 L 52 16 L 48 14 Z" fill="#f1c40f" />
  <path d="M10 18 L 11 16 L 12 18 L 14 19 L 12 20 L 11 22 L 10 20 L 8 19 Z" fill="#f1c40f" />
</svg>