<svg xmlns="http://www.w3.org/2000/svg" viewBox="0 0 512 512">
  <defs>
    <linearGradient id="grad1" x1="0%" y1="0%" x2="100%" y2="100%">
      <stop offset="0%" style="stop-color:#9b59b6;stop-opacity:1" />
      <stop offset="100%" style="stop-color:#e84393;stop-opacity:1" />
    </linearGradient>
  </defs>

  <!-- Coin 1 (Back/Top Right) -->
  <circle cx="360" cy="130" r="75" fill="url(#grad1)"/>
  <path d="M360,95 v70 M340,110 h35 c10,0 10,15 0,15 h-25 c-10,0 -10,15 0,15 h35" stroke="#ffffff" stroke-width="10" stroke-linecap="round" fill="none"/>

  <!-- Coin 2 (Front/Center) -->
  <!-- Thick stroke matches background color to create a 'cutout' effect -->
  <circle cx="240" cy="210" r="85" fill="url(#grad1)" stroke="#121212" stroke-width="16"/>
  <path d="M240,165 v90 M215,185 h40 c12,0 12,18 0,18 h-30 c-12,0 -12,18 0,18 h40" stroke="#ffffff" stroke-width="12" stroke-linecap="round" fill="none"/>

  <!-- Hand Silhouette -->
  <!-- Designed to look like it's supporting the coins -->
  <path fill="url(#grad1)" stroke="#121212" stroke-width="16" d="M-20,520 L60,400 C100,340 180,360 240,380 L460,270 C500,250 520,290 490,330 C460,370 300,480 240,520 Z"/>
</svg>